<?xml version="1.0" encoding="UTF-8" standalone="no"?><svg xmlns="http://www.w3.org/2000/svg" xmlns:xlink="http://www.w3.org/1999/xlink" clip-rule="evenodd" fill="#000000" fill-rule="evenodd" height="21.6" preserveAspectRatio="xMidYMid meet" stroke-linejoin="round" stroke-miterlimit="2" version="1" viewBox="0.3 0.2 78.4 21.6" width="78.4" zoomAndPan="magnify"><g><g><g><g id="change1_1"><path d="M117,16.729C117,13.565 113.403,11 108.966,11C88.642,11 35.358,11 15.034,11C10.597,11 7,13.565 7,16.729C7,19.857 7,23.717 7,26.844C7,30.008 10.597,32.573 15.034,32.573C35.358,32.573 88.642,32.573 108.966,32.573C113.403,32.573 117,30.008 117,26.844C117,23.717 117,19.857 117,16.729Z" fill="#8c52ff" transform="matrix(.71312 0 0 1 -4.652 -10.805)"/></g><g id="change2_1"><path d="M461.926,107.767L456.32,100.776L456.32,92.186L461.289,92.186C462.117,92.186 462.753,92.391 463.196,92.801C463.323,92.918 463.431,93.043 463.522,93.175L465.327,95.429L465.344,95.448L465.344,92.186L467.992,92.186L470.928,95.936L470.928,92.186L473.576,92.186L477.813,97.686L477.813,97.178L474.467,92.186L477.415,92.186L479.366,94.686L479.384,94.686L480.88,92.186L483.813,92.186L488.688,98.436L488.688,92.186L491.167,92.186L494.401,96.231L494.401,92.186L496.903,92.186L498.695,94.436C498.887,93.966 499.157,93.558 499.505,93.211C500.286,92.43 501.374,92.039 502.768,92.039C504.198,92.039 505.3,92.423 506.073,93.19C506.207,93.324 506.33,93.467 506.442,93.62L508.449,96.126L507.573,92.186L510.094,92.186L511.729,94.362L512.33,92.186L514.842,92.186L516.643,94.436L516.651,94.464L517.083,92.186L519.591,92.186L527.58,102.186C527.579,102.22 527.578,102.254 527.576,102.288L527.568,102.436C527.363,105.415 524.882,107.767 521.852,107.767L461.926,107.767Z" fill="#5e17eb" fill-rule="nonzero" transform="translate(-448.799 -86)"/></g><g id="change3_1"><path d="M498.333,96.486C498.333,95.084 498.723,93.992 499.505,93.211C500.286,92.43 501.374,92.039 502.768,92.039C504.198,92.039 505.3,92.423 506.073,93.19C506.846,93.958 507.233,95.033 507.233,96.416C507.233,97.42 507.064,98.243 506.726,98.886C506.388,99.528 505.9,100.028 505.261,100.386C504.623,100.743 503.827,100.922 502.874,100.922C501.905,100.922 501.103,100.768 500.468,100.459C499.834,100.15 499.319,99.662 498.924,98.994C498.53,98.326 498.333,97.49 498.333,96.486ZM470.928,92.186L473.576,92.186L473.576,97.304C473.576,97.811 473.497,98.29 473.339,98.741C473.181,99.192 472.933,99.586 472.595,99.924C472.257,100.262 471.903,100.499 471.532,100.635C471.016,100.827 470.397,100.922 469.674,100.922C469.256,100.922 468.8,100.893 468.306,100.834C467.812,100.776 467.399,100.66 467.067,100.486C466.735,100.312 466.431,100.065 466.156,99.746C465.88,99.425 465.692,99.096 465.59,98.756C465.426,98.209 465.344,97.725 465.344,97.304L465.344,92.186L467.992,92.186L467.992,97.426C467.992,97.894 468.122,98.26 468.382,98.523C468.642,98.787 469.002,98.918 469.463,98.918C469.92,98.918 470.279,98.789 470.538,98.529C470.798,98.269 470.928,97.902 470.928,97.426L470.928,92.186ZM456.32,92.186L461.289,92.186C462.117,92.186 462.753,92.391 463.196,92.801C463.64,93.211 463.861,93.719 463.861,94.325C463.861,94.832 463.703,95.268 463.387,95.631C463.176,95.873 462.867,96.065 462.461,96.205C463.078,96.354 463.532,96.609 463.823,96.97C464.114,97.331 464.26,97.785 464.26,98.332C464.26,98.778 464.156,99.178 463.949,99.534C463.742,99.889 463.459,100.17 463.1,100.377C462.877,100.506 462.541,100.6 462.092,100.659C461.494,100.737 461.098,100.776 460.902,100.776L456.32,100.776L456.32,92.186ZM488.688,92.186L491.167,92.186L494.401,96.938L494.401,92.186L496.903,92.186L496.903,100.776L494.401,100.776L491.184,96.06L491.184,100.776L488.688,100.776L488.688,92.186ZM474.467,92.186L477.415,92.186L479.146,95.084L480.88,92.186L483.813,92.186L480.473,97.178L480.473,100.776L477.813,100.776L477.813,97.178L474.467,92.186ZM507.573,92.186L510.094,92.186L511.002,96.995L512.33,92.186L514.842,92.186L516.174,96.988L517.083,92.186L519.591,92.186L517.697,100.776L515.094,100.776L513.588,95.368L512.087,100.776L509.484,100.776L507.573,92.186ZM500.987,96.498C500.987,97.365 501.148,97.988 501.47,98.367C501.793,98.746 502.231,98.936 502.786,98.936C503.356,98.936 503.798,98.75 504.11,98.379C504.423,98.008 504.579,97.342 504.579,96.381C504.579,95.572 504.416,94.981 504.09,94.608C503.763,94.235 503.321,94.049 502.762,94.049C502.227,94.049 501.798,94.238 501.473,94.617C501.149,94.996 500.987,95.623 500.987,96.498ZM458.998,98.93L460.352,98.93C460.809,98.93 461.131,98.849 461.318,98.687C461.506,98.525 461.6,98.307 461.6,98.034C461.6,97.78 461.507,97.576 461.321,97.421C461.136,97.267 460.811,97.19 460.346,97.19L458.998,97.19L458.998,98.93ZM458.998,95.555L460.152,95.555C460.566,95.555 460.854,95.484 461.017,95.341C461.179,95.199 461.26,94.992 461.26,94.723C461.26,94.473 461.179,94.278 461.017,94.137C460.854,93.996 460.572,93.926 460.17,93.926L458.998,93.926L458.998,95.555Z" fill="#ffffff" fill-rule="nonzero" transform="translate(-448.799 -86)"/></g></g></g></g></svg>